<svg width="48" height="29" viewBox="0 0 48 29" fill="none" xmlns="http://www.w3.org/2000/svg">
<path d="M1.18385 27.7824C0.394617 26.9707 0 25.9377 0 24.6832C0 23.4288 0.394617 22.3957 1.18385 21.584L20.9865 1.21756C21.417 0.774807 21.8834 0.460459 22.3856 0.274505C22.8879 0.0915025 23.426 0 24 0C24.574 0 25.1308 0.110686 25.6703 0.33206C26.207 0.553434 26.6547 0.848599 27.0135 1.21756L46.8161 21.584C47.6054 22.3957 48 23.4288 48 24.6832C48 25.9377 47.6054 26.9707 46.8161 27.7824C46.0269 28.5941 45.0224 29 43.8027 29C42.583 29 41.5785 28.5941 40.7892 27.7824L24 10.5153L7.21076 27.7824C6.42153 28.5941 5.41704 29 4.19731 29C2.97758 29 1.97309 28.5941 1.18385 27.7824Z" fill="white"/>
</svg>
