<svg width="47" height="47" viewBox="0 0 47 47" fill="none" xmlns="http://www.w3.org/2000/svg">
<path d="M41.7778 0H5.22222C2.33694 0 0 2.33694 0 5.22222V41.7778C0 44.6631 2.33694 47 5.22222 47H25.1215V28.8241H19.0037V21.7088H25.1215V16.4735C25.1215 10.4053 28.8319 7.097 34.2473 7.097C36.0725 7.09178 37.8951 7.18578 39.7098 7.37117V13.7162H35.9811C33.0306 13.7162 32.4561 15.1105 32.4561 17.1681V21.6983H39.5061L38.5896 28.8136H32.4143V47H41.7778C44.6631 47 47 44.6631 47 41.7778V5.22222C47 2.33694 44.6631 0 41.7778 0Z" fill="white"/>
</svg>
