<svg width="1496" height="335" viewBox="0 0 1496 335" fill="none" xmlns="http://www.w3.org/2000/svg">
<circle cx="1377.5" cy="216.5" r="7.5" fill="#49A9F5"/>
<circle cx="1377.5" cy="253.5" r="7.5" fill="#49A9F5"/>
<circle cx="1377.5" cy="290.5" r="7.5" fill="#49A9F5"/>
<circle cx="1377.5" cy="327.5" r="7.5" fill="#49A9F5"/>
<circle cx="1414.5" cy="216.5" r="7.5" fill="#49A9F5"/>
<circle cx="1414.5" cy="253.5" r="7.5" fill="#49A9F5"/>
<circle cx="1414.5" cy="290.5" r="7.5" fill="#49A9F5"/>
<circle cx="1414.5" cy="327.5" r="7.5" fill="#49A9F5"/>
<circle cx="1451.5" cy="216.5" r="7.5" fill="#49A9F5"/>
<circle cx="1451.5" cy="253.5" r="7.5" fill="#49A9F5"/>
<circle cx="1451.5" cy="290.5" r="7.5" fill="#49A9F5"/>
<circle cx="1451.5" cy="327.5" r="7.5" fill="#49A9F5"/>
<circle cx="1488.5" cy="216.5" r="7.5" fill="#49A9F5"/>
<circle cx="1488.5" cy="253.5" r="7.5" fill="#49A9F5"/>
<circle cx="1488.5" cy="290.5" r="7.5" fill="#49A9F5"/>
<circle cx="1488.5" cy="327.5" r="7.5" fill="#49A9F5"/>
<circle cx="7.5" cy="7.5" r="7.5" fill="#49A9F5"/>
<circle cx="7.5" cy="44.5" r="7.5" fill="#49A9F5"/>
<circle cx="7.5" cy="81.5" r="7.5" fill="#49A9F5"/>
<circle cx="7.5" cy="118.5" r="7.5" fill="#49A9F5"/>
<circle cx="44.5" cy="7.5" r="7.5" fill="#49A9F5"/>
<circle cx="44.5" cy="44.5" r="7.5" fill="#49A9F5"/>
<circle cx="44.5" cy="81.5" r="7.5" fill="#49A9F5"/>
<circle cx="44.5" cy="118.5" r="7.5" fill="#49A9F5"/>
<circle cx="81.5" cy="7.5" r="7.5" fill="#49A9F5"/>
<circle cx="81.5" cy="44.5" r="7.5" fill="#49A9F5"/>
<circle cx="81.5" cy="81.5" r="7.5" fill="#49A9F5"/>
<circle cx="81.5" cy="118.5" r="7.5" fill="#49A9F5"/>
<circle cx="118.5" cy="7.5" r="7.5" fill="#49A9F5"/>
<circle cx="118.5" cy="44.5" r="7.5" fill="#49A9F5"/>
<circle cx="118.5" cy="81.5" r="7.5" fill="#49A9F5"/>
<circle cx="118.5" cy="118.5" r="7.5" fill="#49A9F5"/>
</svg>
