<?xml version="1.0" encoding="UTF-8"?>
<svg id="Capa_2" data-name="Capa 2" xmlns="http://www.w3.org/2000/svg" viewBox="0 0 772.5 115.51">
  <defs>
    <style>
      .cls-1 {
        fill: #fff;
      }
    </style>
  </defs>
  <g id="Capa_1-2" data-name="Capa 1">
    <g>
      <path class="cls-1" d="m0,113.26V2.17h30.76v41.83h39.51V2.17h30.76v111.09h-30.76v-42.22H30.76v42.22H0Z"/>
      <path class="cls-1" d="m121.32,113.26V2.17h30.76v111.09h-30.76Z"/>
      <path class="cls-1" d="m172.53,113.26V2.17h52.4c16.13,0,28.16,4,36.09,12,6.54,6.6,9.82,15.43,9.82,26.49,0,8.13-2,15.03-6,20.71-4,5.68-9.56,10.02-16.68,13.04l26.5,38.86h-35.5l-22.39-33.78h-13.48v33.78h-30.76Zm30.76-57.72h20.3c5.22,0,9.27-1.18,12.16-3.55s4.34-5.64,4.34-9.81-1.46-7.44-4.38-9.66c-2.92-2.21-7.01-3.32-12.28-3.32h-20.14v26.34Z"/>
      <path class="cls-1" d="m282.77,57.75c0-7.86,1.54-15.34,4.61-22.44,3.07-7.11,7.24-13.24,12.51-18.41,5.27-5.17,11.62-9.28,19.06-12.33s15.36-4.57,23.78-4.57,16.32,1.51,23.71,4.54c7.39,3.02,13.69,7.11,18.92,12.25,5.22,5.14,9.34,11.27,12.35,18.37s4.52,14.64,4.52,22.6-1.53,15.33-4.6,22.45c-3.07,7.12-7.23,13.26-12.48,18.43-5.25,5.16-11.59,9.26-19.01,12.31-7.42,3.04-15.33,4.57-23.72,4.57-11.21,0-21.38-2.57-30.52-7.7-9.14-5.13-16.28-12.1-21.42-20.9-5.14-8.8-7.71-18.52-7.71-29.15Zm31.53,0c0,8.22,2.68,15.28,8.06,21.18,5.37,5.89,12.16,8.84,20.38,8.84s15.11-2.91,20.38-8.73c5.27-5.82,7.9-12.92,7.9-21.29s-2.69-15.28-8.06-21.18c-5.37-5.9-12.21-8.84-20.53-8.84s-14.95,2.91-20.22,8.73c-5.27,5.82-7.9,12.92-7.9,21.29Z"/>
    </g>
    <g>
      <path class="cls-1" d="m471.44,60.32h-14.75l-2.97,7.97h-2.17l11.43-30.38h2.21l11.38,30.38h-2.17l-2.97-7.97Zm-.62-1.68l-6.73-18.11-6.78,18.11h13.51Z"/>
      <path class="cls-1" d="m498.41,45.78c1.77,1.23,3.01,2.8,3.72,4.72v-6.24h1.99v24.8c0,2.21-.49,4.16-1.46,5.82-.97,1.67-2.29,2.95-3.94,3.85-1.65.9-3.5,1.35-5.54,1.35-3.01,0-5.51-.72-7.48-2.17-1.98-1.45-3.28-3.4-3.9-5.85h1.99c.59,1.92,1.7,3.45,3.32,4.58,1.62,1.14,3.65,1.71,6.07,1.71,1.68,0,3.2-.38,4.56-1.13,1.36-.75,2.43-1.83,3.21-3.23.78-1.4,1.17-3.05,1.17-4.94v-7.04c-.71,1.92-1.96,3.51-3.74,4.76-1.79,1.26-3.93,1.88-6.44,1.88-2.24,0-4.25-.51-6-1.53-1.76-1.02-3.13-2.46-4.12-4.34-.99-1.87-1.48-4.05-1.48-6.53s.49-4.65,1.48-6.51c.99-1.86,2.36-3.29,4.12-4.3,1.76-1,3.76-1.51,6-1.51,2.54,0,4.69.61,6.47,1.84Zm2.41,4.92c-.87-1.61-2.06-2.85-3.56-3.72-1.51-.87-3.19-1.31-5.05-1.31s-3.66.42-5.14,1.26-2.63,2.06-3.45,3.65c-.83,1.59-1.24,3.48-1.24,5.67s.41,4.07,1.24,5.67c.83,1.59,1.99,2.82,3.48,3.68,1.49.86,3.2,1.28,5.12,1.28s3.55-.44,5.07-1.31c1.52-.87,2.71-2.11,3.57-3.72.86-1.61,1.28-3.48,1.28-5.6s-.44-3.95-1.31-5.56Z"/>
      <path class="cls-1" d="m532.96,57.05h-20.77c.06,2.16.53,3.97,1.42,5.45.89,1.48,2.05,2.58,3.5,3.32,1.45.74,3.03,1.11,4.74,1.11,2.36,0,4.34-.58,5.93-1.75,1.59-1.17,2.6-2.75,3.01-4.76h2.08c-.47,2.45-1.68,4.44-3.63,5.96-1.95,1.52-4.41,2.28-7.4,2.28-2.24,0-4.25-.5-6.02-1.51-1.77-1-3.16-2.44-4.16-4.32-1-1.88-1.51-4.07-1.51-6.58s.49-4.69,1.48-6.55c.99-1.86,2.37-3.28,4.14-4.27,1.77-.99,3.79-1.48,6.07-1.48s4.3.49,6,1.48c1.7.99,2.99,2.3,3.88,3.94s1.33,3.4,1.33,5.29c0,1.06-.03,1.86-.09,2.39Zm-3.03-7.04c-.84-1.48-1.99-2.58-3.43-3.3-1.45-.72-3.01-1.09-4.69-1.09s-3.24.36-4.67,1.09c-1.43.72-2.6,1.82-3.5,3.3-.9,1.48-1.38,3.28-1.44,5.4h18.87c.09-2.13-.29-3.93-1.13-5.4Z"/>
      <path class="cls-1" d="m556.91,46.4c1.8,1.76,2.7,4.36,2.7,7.82v14.08h-1.95v-13.95c0-2.86-.72-5.06-2.17-6.58-1.45-1.52-3.41-2.28-5.89-2.28s-4.67.83-6.22,2.48c-1.55,1.65-2.33,4.1-2.33,7.35v12.98h-1.99v-24.05h1.99v5.09c.68-1.8,1.81-3.18,3.39-4.14,1.58-.96,3.4-1.44,5.47-1.44,2.86,0,5.2.88,7,2.64Z"/>
      <path class="cls-1" d="m566.9,49.69c.99-1.86,2.36-3.28,4.12-4.27,1.76-.99,3.77-1.48,6.04-1.48,3.01,0,5.48.75,7.42,2.26,1.93,1.51,3.14,3.53,3.61,6.07h-2.08c-.38-2.07-1.38-3.69-2.99-4.87-1.61-1.18-3.6-1.77-5.96-1.77-1.77,0-3.38.39-4.83,1.17-1.45.78-2.61,1.98-3.48,3.59-.87,1.61-1.31,3.56-1.31,5.87s.44,4.3,1.31,5.89c.87,1.59,2.03,2.79,3.48,3.59,1.45.8,3.06,1.2,4.83,1.2,2.36,0,4.35-.59,5.96-1.77,1.61-1.18,2.6-2.8,2.99-4.87h2.08c-.47,2.51-1.68,4.53-3.63,6.07-1.95,1.54-4.41,2.3-7.4,2.3-2.27,0-4.29-.5-6.04-1.51-1.76-1-3.13-2.44-4.12-4.32s-1.48-4.07-1.48-6.58.49-4.69,1.48-6.55Z"/>
      <path class="cls-1" d="m593.98,38.42c-.33-.31-.49-.73-.49-1.26,0-.5.16-.92.49-1.24.33-.32.72-.49,1.2-.49s.87.16,1.2.49c.33.33.49.74.49,1.24,0,.53-.16.95-.49,1.26s-.72.46-1.2.46-.87-.15-1.2-.46Zm2.17,5.82v24.05h-1.99v-24.05h1.99Z"/>
      <path class="cls-1" d="m603.7,49.74c.99-1.86,2.36-3.29,4.12-4.3,1.76-1,3.76-1.51,6-1.51,2.54,0,4.69.62,6.47,1.86,1.77,1.24,3.01,2.82,3.72,4.74v-6.29h1.99v24.05h-1.99v-6.33c-.71,1.95-1.96,3.55-3.74,4.81-1.79,1.26-3.93,1.88-6.44,1.88-2.24,0-4.25-.51-6-1.53-1.76-1.02-3.13-2.46-4.12-4.34-.99-1.87-1.48-4.05-1.48-6.53s.49-4.65,1.48-6.51Zm19,.95c-.87-1.61-2.06-2.85-3.56-3.72-1.51-.87-3.19-1.31-5.05-1.31s-3.66.42-5.14,1.26-2.63,2.06-3.45,3.65c-.83,1.59-1.24,3.48-1.24,5.67s.41,4.07,1.24,5.67c.83,1.59,1.99,2.82,3.48,3.68,1.49.86,3.2,1.28,5.12,1.28s3.55-.44,5.07-1.31c1.52-.87,2.71-2.11,3.57-3.72.86-1.61,1.28-3.48,1.28-5.6s-.44-3.95-1.31-5.56Z"/>
      <path class="cls-1" d="m666.63,41.32c2.85,2.75,4.27,6.57,4.27,11.47s-1.42,8.71-4.27,11.43-6.9,4.07-12.16,4.07h-8.72v-31.09h8.72c5.25,0,9.31,1.37,12.16,4.12Zm-1.44,21.63c2.45-2.44,3.68-5.82,3.68-10.16s-1.22-7.78-3.68-10.23-6.02-3.68-10.72-3.68h-6.73v27.72h6.73c4.69,0,8.27-1.22,10.72-3.65Z"/>
      <path class="cls-1" d="m676.75,38.42c-.33-.31-.49-.73-.49-1.26,0-.5.16-.92.49-1.24.33-.32.72-.49,1.2-.49s.87.16,1.2.49c.33.33.49.74.49,1.24,0,.53-.16.95-.49,1.26s-.72.46-1.2.46-.87-.15-1.2-.46Zm2.17,5.82v24.05h-1.99v-24.05h1.99Z"/>
      <path class="cls-1" d="m703.06,45.78c1.77,1.23,3.01,2.8,3.72,4.72v-6.24h1.99v24.8c0,2.21-.49,4.16-1.46,5.82-.97,1.67-2.29,2.95-3.94,3.85-1.65.9-3.5,1.35-5.54,1.35-3.01,0-5.51-.72-7.48-2.17-1.98-1.45-3.28-3.4-3.9-5.85h1.99c.59,1.92,1.7,3.45,3.32,4.58,1.62,1.14,3.65,1.71,6.07,1.71,1.68,0,3.2-.38,4.56-1.13,1.36-.75,2.43-1.83,3.21-3.23.78-1.4,1.17-3.05,1.17-4.94v-7.04c-.71,1.92-1.96,3.51-3.74,4.76-1.79,1.26-3.93,1.88-6.44,1.88-2.24,0-4.25-.51-6-1.53-1.76-1.02-3.13-2.46-4.12-4.34-.99-1.87-1.48-4.05-1.48-6.53s.49-4.65,1.48-6.51c.99-1.86,2.36-3.29,4.12-4.3,1.76-1,3.76-1.51,6-1.51,2.54,0,4.69.61,6.47,1.84Zm2.41,4.92c-.87-1.61-2.06-2.85-3.56-3.72-1.51-.87-3.19-1.31-5.05-1.31s-3.66.42-5.14,1.26-2.63,2.06-3.45,3.65c-.83,1.59-1.24,3.48-1.24,5.67s.41,4.07,1.24,5.67c.83,1.59,1.99,2.82,3.48,3.68,1.49.86,3.2,1.28,5.12,1.28s3.55-.44,5.07-1.31c1.52-.87,2.71-2.11,3.57-3.72.86-1.61,1.28-3.48,1.28-5.6s-.44-3.95-1.31-5.56Z"/>
      <path class="cls-1" d="m715.86,38.42c-.33-.31-.49-.73-.49-1.26,0-.5.16-.92.49-1.24.33-.32.72-.49,1.2-.49s.87.16,1.2.49c.33.33.49.74.49,1.24,0,.53-.16.95-.49,1.26s-.72.46-1.2.46-.87-.15-1.2-.46Zm2.17,5.82v24.05h-1.99v-24.05h1.99Z"/>
      <path class="cls-1" d="m728.3,45.97v15.9c0,1.77.32,2.99.97,3.65.65.66,1.8,1,3.45,1h2.7v1.77h-3.01c-2.1,0-3.64-.49-4.63-1.48-.99-.99-1.48-2.64-1.48-4.94v-15.9h-3.63v-1.73h3.63v-6.11h1.99v6.11h7.13v1.73h-7.13Z"/>
      <path class="cls-1" d="m740.95,49.74c.99-1.86,2.36-3.29,4.12-4.3,1.76-1,3.76-1.51,6-1.51,2.54,0,4.69.62,6.47,1.86,1.77,1.24,3.01,2.82,3.72,4.74v-6.29h1.99v24.05h-1.99v-6.33c-.71,1.95-1.96,3.55-3.74,4.81-1.79,1.26-3.93,1.88-6.44,1.88-2.24,0-4.25-.51-6-1.53-1.76-1.02-3.13-2.46-4.12-4.34-.99-1.87-1.48-4.05-1.48-6.53s.49-4.65,1.48-6.51Zm19,.95c-.87-1.61-2.06-2.85-3.56-3.72-1.51-.87-3.19-1.31-5.05-1.31s-3.66.42-5.14,1.26-2.63,2.06-3.45,3.65c-.83,1.59-1.24,3.48-1.24,5.67s.41,4.07,1.24,5.67c.83,1.59,1.99,2.82,3.48,3.68,1.49.86,3.2,1.28,5.12,1.28s3.55-.44,5.07-1.31c1.52-.87,2.71-2.11,3.57-3.72.86-1.61,1.28-3.48,1.28-5.6s-.44-3.95-1.31-5.56Z"/>
      <path class="cls-1" d="m772.5,35.52v32.77h-1.99v-32.77h1.99Z"/>
    </g>
    <rect class="cls-1" x="427.04" y=".25" width="1" height="115"/>
  </g>
</svg>