<?xml version="1.0" encoding="utf-8"?>
<!-- Generator: Adobe Illustrator 27.6.1, SVG Export Plug-In . SVG Version: 6.00 Build 0)  -->
<svg version="1.1" id="Capa_2_00000070816916355032156110000002650422833508915895_"
	 xmlns="http://www.w3.org/2000/svg" xmlns:xlink="http://www.w3.org/1999/xlink" x="0px" y="0px" viewBox="0 0 1083.7 115.5"
	 style="enable-background:new 0 0 1083.7 115.5;" xml:space="preserve">
<style type="text/css">
	.st0{fill:#FFFFFF;}
</style>
<g id="Capa_1-2">
	<g>
		<path class="st0" d="M0,113.3V2.2h30.8V44h39.5V2.2H101v111.1H70.3V71H30.8v42.2C30.8,113.3,0,113.3,0,113.3z"/>
		<path class="st0" d="M121.3,113.3V2.2h30.8v111.1C152.1,113.3,121.3,113.3,121.3,113.3z"/>
		<path class="st0" d="M172.5,113.3V2.2h52.4c16.1,0,28.2,4,36.1,12c6.5,6.6,9.8,15.4,9.8,26.5c0,8.1-2,15-6,20.7s-9.6,10-16.7,13
			l26.5,38.9h-35.5l-22.4-33.8h-13.5v33.8L172.5,113.3L172.5,113.3z M203.3,55.5h20.3c5.2,0,9.3-1.2,12.2-3.5s4.3-5.6,4.3-9.8
			s-1.5-7.4-4.4-9.7c-2.9-2.2-7-3.3-12.3-3.3h-20.1V55.5z"/>
		<path class="st0" d="M282.8,57.7c0-7.9,1.5-15.3,4.6-22.4c3.1-7.1,7.2-13.2,12.5-18.4c5.3-5.2,11.6-9.3,19.1-12.3S334.3,0,342.7,0
			s16.3,1.5,23.7,4.5c7.4,3,13.7,7.1,18.9,12.2c5.2,5.1,9.3,11.3,12.4,18.4s4.5,14.6,4.5,22.6s-1.5,15.3-4.6,22.5
			c-3.1,7.1-7.2,13.3-12.5,18.4c-5.2,5.2-11.6,9.3-19,12.3c-7.4,3-15.3,4.6-23.7,4.6c-11.2,0-21.4-2.6-30.5-7.7
			c-9.1-5.1-16.3-12.1-21.4-20.9S282.8,68.4,282.8,57.7L282.8,57.7z M314.3,57.7c0,8.2,2.7,15.3,8.1,21.2c5.4,5.9,12.2,8.8,20.4,8.8
			s15.1-2.9,20.4-8.7c5.3-5.8,7.9-12.9,7.9-21.3s-2.7-15.3-8.1-21.2s-12.2-8.8-20.5-8.8s-15,2.9-20.2,8.7S314.3,49.4,314.3,57.7
			L314.3,57.7z"/>
	</g>
	<g>
		<path class="st0" d="M495.3,62.7h-28.5L461,78.1h-4.2l22.1-58.7h4.3l22,58.7H501L495.3,62.7L495.3,62.7z M494.1,59.5l-13-35
			l-13.1,35H494.1z"/>
		<path class="st0" d="M547.4,34.6c3.4,2.4,5.8,5.4,7.2,9.1V31.6h3.8v48c0,4.3-0.9,8-2.8,11.3c-1.9,3.2-4.4,5.7-7.6,7.4
			c-3.2,1.7-6.8,2.6-10.7,2.6c-5.8,0-10.7-1.4-14.5-4.2c-3.8-2.8-6.3-6.6-7.5-11.3h3.8c1.1,3.7,3.3,6.7,6.4,8.9
			c3.1,2.2,7.1,3.3,11.7,3.3c3.2,0,6.2-0.7,8.8-2.2c2.6-1.5,4.7-3.5,6.2-6.2c1.5-2.7,2.3-5.9,2.3-9.6V66c-1.4,3.7-3.8,6.8-7.2,9.2
			c-3.5,2.4-7.6,3.6-12.5,3.6c-4.3,0-8.2-1-11.6-3c-3.4-2-6.1-4.8-8-8.4c-1.9-3.6-2.9-7.8-2.9-12.6s0.9-9,2.9-12.6
			c1.9-3.6,4.6-6.4,8-8.3c3.4-1.9,7.3-2.9,11.6-2.9C539.8,31,544,32.2,547.4,34.6L547.4,34.6z M552.1,44.1c-1.7-3.1-4-5.5-6.9-7.2
			c-2.9-1.7-6.2-2.5-9.8-2.5c-3.6,0-7.1,0.8-9.9,2.4c-2.9,1.6-5.1,4-6.7,7.1c-1.6,3.1-2.4,6.7-2.4,11s0.8,7.9,2.4,11
			c1.6,3.1,3.8,5.5,6.7,7.1c2.9,1.7,6.2,2.5,9.9,2.5s6.9-0.9,9.8-2.5c2.9-1.7,5.2-4.1,6.9-7.2s2.5-6.7,2.5-10.8
			S553.8,47.2,552.1,44.1L552.1,44.1z"/>
		<path class="st0" d="M614.2,56.4h-40.2c0.1,4.2,1,7.7,2.7,10.5c1.7,2.9,4,5,6.8,6.4c2.8,1.4,5.9,2.1,9.2,2.1
			c4.6,0,8.4-1.1,11.5-3.4c3.1-2.3,5-5.3,5.8-9.2h4c-0.9,4.7-3.2,8.6-7,11.5s-8.5,4.4-14.3,4.4c-4.3,0-8.2-1-11.6-2.9
			c-3.4-1.9-6.1-4.7-8-8.4c-1.9-3.6-2.9-7.9-2.9-12.7s0.9-9.1,2.9-12.7c1.9-3.6,4.6-6.3,8-8.3c3.4-1.9,7.3-2.9,11.7-2.9
			s8.3,0.9,11.6,2.9c3.3,1.9,5.8,4.4,7.5,7.6s2.6,6.6,2.6,10.2C614.4,53.8,614.3,55.4,614.2,56.4L614.2,56.4z M608.4,42.8
			c-1.6-2.9-3.8-5-6.6-6.4c-2.8-1.4-5.8-2.1-9.1-2.1c-3.2,0-6.3,0.7-9,2.1c-2.8,1.4-5,3.5-6.8,6.4c-1.7,2.9-2.7,6.3-2.8,10.4h36.5
			C610.8,49.1,610,45.6,608.4,42.8L608.4,42.8z"/>
		<path class="st0" d="M660.5,35.8c3.5,3.4,5.2,8.4,5.2,15.1v27.2H662v-27c0-5.5-1.4-9.8-4.2-12.7c-2.8-2.9-6.6-4.4-11.4-4.4
			s-9,1.6-12,4.8c-3,3.2-4.5,7.9-4.5,14.2v25.1H626V31.6h3.8v9.8c1.3-3.5,3.5-6.1,6.6-8s6.6-2.8,10.6-2.8
			C652.5,30.7,657.1,32.4,660.5,35.8z"/>
		<path class="st0" d="M679.9,42.1c1.9-3.6,4.6-6.3,8-8.3s7.3-2.9,11.7-2.9c5.8,0,10.6,1.5,14.3,4.4c3.7,2.9,6.1,6.8,7,11.7h-4
			c-0.7-4-2.7-7.1-5.8-9.4c-3.1-2.3-7-3.4-11.5-3.4c-3.4,0-6.5,0.8-9.3,2.3s-5,3.8-6.7,6.9c-1.7,3.1-2.5,6.9-2.5,11.4
			s0.9,8.3,2.5,11.4c1.7,3.1,3.9,5.4,6.7,6.9c2.8,1.5,5.9,2.3,9.3,2.3c4.6,0,8.4-1.1,11.5-3.4c3.1-2.3,5-5.4,5.8-9.4h4
			c-0.9,4.9-3.2,8.8-7,11.7c-3.8,3-8.5,4.4-14.3,4.4c-4.4,0-8.3-1-11.7-2.9c-3.4-1.9-6.1-4.7-8-8.4c-1.9-3.6-2.9-7.9-2.9-12.7
			S678,45.8,679.9,42.1L679.9,42.1z"/>
		<path class="st0" d="M732.2,20.4c-0.6-0.6-0.9-1.4-0.9-2.4c0-1,0.3-1.8,0.9-2.4c0.6-0.6,1.4-0.9,2.3-0.9c0.9,0,1.7,0.3,2.3,0.9
			s0.9,1.4,0.9,2.4c0,1-0.3,1.8-0.9,2.4c-0.6,0.6-1.4,0.9-2.3,0.9C733.6,21.2,732.9,21,732.2,20.4z M736.4,31.6v46.5h-3.8V31.6
			C732.6,31.6,736.4,31.6,736.4,31.6z"/>
		<path class="st0" d="M751,42.2c1.9-3.6,4.6-6.4,8-8.3c3.4-1.9,7.3-2.9,11.6-2.9c4.9,0,9.1,1.2,12.5,3.6c3.4,2.4,5.8,5.5,7.2,9.2
			V31.6h3.8v46.5h-3.8V65.9c-1.4,3.8-3.8,6.9-7.2,9.3c-3.5,2.4-7.6,3.6-12.5,3.6c-4.3,0-8.2-1-11.6-3c-3.4-2-6.1-4.8-8-8.4
			c-1.9-3.6-2.9-7.8-2.9-12.6S749.1,45.8,751,42.2L751,42.2z M787.8,44.1c-1.7-3.1-4-5.5-6.9-7.2c-2.9-1.7-6.2-2.5-9.8-2.5
			c-3.6,0-7.1,0.8-9.9,2.4c-2.9,1.6-5.1,4-6.7,7.1c-1.6,3.1-2.4,6.7-2.4,11s0.8,7.9,2.4,11c1.6,3.1,3.8,5.5,6.7,7.1
			c2.9,1.7,6.2,2.5,9.9,2.5c3.7,0,6.9-0.9,9.8-2.5c2.9-1.7,5.2-4.1,6.9-7.2c1.7-3.1,2.5-6.7,2.5-10.8S789.5,47.2,787.8,44.1
			L787.8,44.1z"/>
		<path class="st0" d="M872.7,26c5.5,5.3,8.3,12.7,8.3,22.2s-2.7,16.8-8.3,22.1s-13.3,7.9-23.5,7.9h-16.9V18h16.9
			C859.4,18,867.2,20.6,872.7,26z M869.9,67.8c4.7-4.7,7.1-11.3,7.1-19.6s-2.4-15-7.1-19.8c-4.8-4.7-11.6-7.1-20.7-7.1h-13v53.6h13
			C858.3,74.8,865.2,72.5,869.9,67.8z"/>
		<path class="st0" d="M892.3,20.4c-0.6-0.6-0.9-1.4-0.9-2.4c0-1,0.3-1.8,0.9-2.4c0.6-0.6,1.4-0.9,2.3-0.9c0.9,0,1.7,0.3,2.3,0.9
			s0.9,1.4,0.9,2.4c0,1-0.3,1.8-0.9,2.4c-0.6,0.6-1.4,0.9-2.3,0.9C893.7,21.2,892.9,21,892.3,20.4z M896.5,31.6v46.5h-3.8V31.6
			C892.6,31.6,896.5,31.6,896.5,31.6z"/>
		<path class="st0" d="M943.2,34.6c3.4,2.4,5.8,5.4,7.2,9.1V31.6h3.8v48c0,4.3-0.9,8-2.8,11.3c-1.9,3.2-4.4,5.7-7.6,7.4
			c-3.2,1.7-6.8,2.6-10.7,2.6c-5.8,0-10.7-1.4-14.5-4.2c-3.8-2.8-6.3-6.6-7.5-11.3h3.8c1.1,3.7,3.3,6.7,6.4,8.9
			c3.1,2.2,7.1,3.3,11.7,3.3c3.2,0,6.2-0.7,8.8-2.2c2.6-1.5,4.7-3.5,6.2-6.2s2.3-5.9,2.3-9.6V66c-1.4,3.7-3.8,6.8-7.2,9.2
			c-3.5,2.4-7.6,3.6-12.5,3.6c-4.3,0-8.2-1-11.6-3c-3.4-2-6.1-4.8-8-8.4c-1.9-3.6-2.9-7.8-2.9-12.6s0.9-9,2.9-12.6
			c1.9-3.6,4.6-6.4,8-8.3c3.4-1.9,7.3-2.9,11.6-2.9C935.6,31,939.7,32.2,943.2,34.6L943.2,34.6z M947.8,44.1c-1.7-3.1-4-5.5-6.9-7.2
			c-2.9-1.7-6.2-2.5-9.8-2.5c-3.6,0-7.1,0.8-9.9,2.4s-5.1,4-6.7,7.1c-1.6,3.1-2.4,6.7-2.4,11s0.8,7.9,2.4,11
			c1.6,3.1,3.8,5.5,6.7,7.1c2.9,1.7,6.2,2.5,9.9,2.5c3.7,0,6.9-0.9,9.8-2.5c2.9-1.7,5.2-4.1,6.9-7.2c1.7-3.1,2.5-6.7,2.5-10.8
			S949.5,47.2,947.8,44.1L947.8,44.1z"/>
		<path class="st0" d="M967.9,20.4c-0.6-0.6-0.9-1.4-0.9-2.4c0-1,0.3-1.8,0.9-2.4c0.6-0.6,1.4-0.9,2.3-0.9c0.9,0,1.7,0.3,2.3,0.9
			s0.9,1.4,0.9,2.4c0,1-0.3,1.8-0.9,2.4c-0.6,0.6-1.4,0.9-2.3,0.9C969.3,21.2,968.6,21,967.9,20.4z M972.1,31.6v46.5h-3.8V31.6
			C968.3,31.6,972.1,31.6,972.1,31.6z"/>
		<path class="st0" d="M992,35v30.7c0,3.4,0.6,5.8,1.9,7.1c1.3,1.3,3.5,1.9,6.7,1.9h5.2v3.4h-5.8c-4.1,0-7-0.9-9-2.9
			c-1.9-1.9-2.9-5.1-2.9-9.6V35h-7v-3.3h7V19.8h3.8v11.8h13.8V35H992L992,35z"/>
		<path class="st0" d="M1016.4,42.2c1.9-3.6,4.6-6.4,8-8.3c3.4-1.9,7.3-2.9,11.6-2.9c4.9,0,9.1,1.2,12.5,3.6
			c3.4,2.4,5.8,5.5,7.2,9.2V31.6h3.8v46.5h-3.8V65.9c-1.4,3.8-3.8,6.9-7.2,9.3c-3.5,2.4-7.6,3.6-12.5,3.6c-4.3,0-8.2-1-11.6-3
			c-3.4-2-6.1-4.8-8-8.4c-1.9-3.6-2.9-7.8-2.9-12.6S1014.6,45.8,1016.4,42.2L1016.4,42.2z M1053.2,44.1c-1.7-3.1-4-5.5-6.9-7.2
			c-2.9-1.7-6.2-2.5-9.8-2.5c-3.6,0-7.1,0.8-9.9,2.4c-2.9,1.6-5.1,4-6.7,7.1c-1.6,3.1-2.4,6.7-2.4,11s0.8,7.9,2.4,11
			c1.6,3.1,3.8,5.5,6.7,7.1c2.9,1.7,6.2,2.5,9.9,2.5s6.9-0.9,9.8-2.5c2.9-1.7,5.2-4.1,6.9-7.2c1.7-3.1,2.5-6.7,2.5-10.8
			S1054.9,47.2,1053.2,44.1L1053.2,44.1z"/>
		<path class="st0" d="M1077.5,14.7v63.4h-3.8V14.7H1077.5z"/>
	</g>
	<rect x="427" y="0.2" class="st0" width="1" height="115"/>
</g>
</svg>
