<svg width="47" height="47" viewBox="0 0 47 47" fill="none" xmlns="http://www.w3.org/2000/svg">
<path d="M13.0556 0C5.84628 0 0 5.84628 0 13.0556V33.9444C0 41.1537 5.84628 47 13.0556 47H33.9444C41.1537 47 47 41.1537 47 33.9444V13.0556C47 5.84628 41.1537 0 33.9444 0H13.0556ZM39.1667 5.22222C40.608 5.22222 41.7778 6.392 41.7778 7.83333C41.7778 9.27467 40.608 10.4444 39.1667 10.4444C37.7253 10.4444 36.5556 9.27467 36.5556 7.83333C36.5556 6.392 37.7253 5.22222 39.1667 5.22222ZM23.5 10.4444C30.7093 10.4444 36.5556 16.2907 36.5556 23.5C36.5556 30.7093 30.7093 36.5556 23.5 36.5556C16.2907 36.5556 10.4444 30.7093 10.4444 23.5C10.4444 16.2907 16.2907 10.4444 23.5 10.4444ZM23.5 15.6667C21.4225 15.6667 19.43 16.492 17.961 17.961C16.492 19.43 15.6667 21.4225 15.6667 23.5C15.6667 25.5775 16.492 27.57 17.961 29.039C19.43 30.508 21.4225 31.3333 23.5 31.3333C25.5775 31.3333 27.57 30.508 29.039 29.039C30.508 27.57 31.3333 25.5775 31.3333 23.5C31.3333 21.4225 30.508 19.43 29.039 17.961C27.57 16.492 25.5775 15.6667 23.5 15.6667Z" fill="white"/>
</svg>
