<svg width="51" height="52" viewBox="0 0 51 52" fill="none" xmlns="http://www.w3.org/2000/svg">
<path d="M43.5678 7.47805C38.7754 2.65996 32.394 0.0202637 25.6025 0.0202637C11.6095 0.0202637 0.205026 11.4248 0.205026 25.4177C0.205026 29.9027 1.38392 34.2595 3.58794 38.1037L0 51.2765L13.4548 47.7399C17.1709 49.7645 21.3482 50.8409 25.6025 50.8409C39.5955 50.8409 51 39.4363 51 25.4434C51 18.6519 48.3603 12.2705 43.5678 7.47805ZM25.6025 46.5353C21.8095 46.5353 18.0935 45.5102 14.8387 43.5881L14.0698 43.1268L6.07387 45.2283L8.201 37.4373L7.68844 36.6429C5.58693 33.2856 4.4593 29.3901 4.4593 25.4177C4.4593 13.7826 13.9417 4.30016 25.5769 4.30016C31.2151 4.30016 36.5201 6.50418 40.4925 10.5022C44.4904 14.5002 46.6688 19.8052 46.6688 25.4434C46.7201 37.0786 37.2377 46.5353 25.6025 46.5353ZM37.1864 30.7484C36.5457 30.4409 33.4191 28.9032 32.8553 28.6725C32.2658 28.4675 31.8558 28.365 31.4201 28.9801C30.9844 29.6208 29.7799 31.0559 29.4211 31.466C29.0623 31.9017 28.6779 31.9529 28.0372 31.6198C27.3965 31.3122 25.3462 30.6203 22.9372 28.4675C21.0407 26.776 19.7849 24.7002 19.4005 24.0595C19.0417 23.4188 19.3492 23.0856 19.6824 22.7524C19.9643 22.4705 20.3231 22.0092 20.6307 21.6504C20.9382 21.2916 21.0663 21.0097 21.2714 20.5997C21.4764 20.164 21.3739 19.8052 21.2201 19.4977C21.0663 19.1901 19.7849 16.0635 19.2724 14.7821C18.7598 13.5519 18.2216 13.7057 17.8372 13.6801C17.4528 13.6801 17.0427 13.6801 16.607 13.6801C16.1714 13.6801 15.505 13.8338 14.9156 14.4745C14.3518 15.1152 12.7116 16.6529 12.7116 19.7796C12.7116 22.9062 14.9925 25.9303 15.3 26.3404C15.6075 26.776 19.7849 33.1831 26.1407 35.9253C27.6528 36.5916 28.8317 36.976 29.7543 37.258C31.2663 37.7449 32.6502 37.668 33.7523 37.5142C34.9824 37.3348 37.5196 35.9765 38.0322 34.4901C38.5703 33.0037 38.5703 31.7479 38.391 31.466C38.2116 31.1841 37.8271 31.0559 37.1864 30.7484Z" fill="white"/>
</svg>
