<svg width="47" height="39" viewBox="0 0 47 39" fill="none" xmlns="http://www.w3.org/2000/svg">
<path d="M46.0177 5.83705C45.4772 3.81605 43.8839 2.22275 41.8629 1.68225C38.1969 0.699952 23.5 0.699951 23.5 0.699951C23.5 0.699951 8.8031 0.699952 5.1371 1.68225C3.1161 2.22275 1.5228 3.81605 0.9823 5.83705C-7.00355e-08 9.50305 0 19.5 0 19.5C0 19.5 -7.00355e-08 29.4968 0.9823 33.1628C1.5228 35.1838 3.1161 36.7772 5.1371 37.3177C8.8031 38.3 23.5 38.2999 23.5 38.2999C23.5 38.2999 38.1969 38.3 41.8629 37.3177C43.8862 36.7772 45.4772 35.1838 46.0177 33.1628C47 29.4968 47 19.5 47 19.5C47 19.5 47 9.50305 46.0177 5.83705ZM18.8 27.6403V11.3596L32.9 19.5L18.8 27.6403Z" fill="white"/>
</svg>
